<mxfile host="app.diagrams.net" modified="2024-01-08T12:10:31.121Z" agent="Mozilla/5.0 (Windows NT 10.0; Win64; x64) AppleWebKit/537.36 (KHTML, like Gecko) Chrome/115.0.0.0 Safari/537.36" etag="LiMfDHFYexvGbM3pMyK5" version="22.1.17" type="device">
  <diagram name="Page-1" id="gSrxrRGofnk8fy-xU3o0">
    <mxGraphModel dx="1311" dy="718" grid="1" gridSize="10" guides="1" tooltips="1" connect="1" arrows="1" fold="1" page="1" pageScale="1" pageWidth="850" pageHeight="1100" math="0" shadow="0">
      <root>
        <mxCell id="0" />
        <mxCell id="1" parent="0" />
        <mxCell id="-xlM-6BcLW93TCqh4AAz-24" style="edgeStyle=orthogonalEdgeStyle;rounded=0;orthogonalLoop=1;jettySize=auto;html=1;exitX=0.5;exitY=0.5;exitDx=0;exitDy=0;exitPerimeter=0;entryX=0;entryY=0.5;entryDx=0;entryDy=0;" edge="1" parent="1" source="-xlM-6BcLW93TCqh4AAz-1" target="-xlM-6BcLW93TCqh4AAz-8">
          <mxGeometry relative="1" as="geometry" />
        </mxCell>
        <mxCell id="-xlM-6BcLW93TCqh4AAz-25" style="edgeStyle=orthogonalEdgeStyle;rounded=0;orthogonalLoop=1;jettySize=auto;html=1;exitX=1;exitY=1;exitDx=0;exitDy=0;exitPerimeter=0;entryX=0;entryY=0.5;entryDx=0;entryDy=0;" edge="1" parent="1" source="-xlM-6BcLW93TCqh4AAz-1" target="-xlM-6BcLW93TCqh4AAz-12">
          <mxGeometry relative="1" as="geometry" />
        </mxCell>
        <mxCell id="-xlM-6BcLW93TCqh4AAz-1" value="Customer" style="shape=umlActor;verticalLabelPosition=bottom;verticalAlign=top;html=1;outlineConnect=0;" vertex="1" parent="1">
          <mxGeometry x="190" y="150" width="30" height="60" as="geometry" />
        </mxCell>
        <mxCell id="-xlM-6BcLW93TCqh4AAz-2" value="" style="ellipse;whiteSpace=wrap;html=1;" vertex="1" parent="1">
          <mxGeometry x="345" y="60" width="80" height="50" as="geometry" />
        </mxCell>
        <mxCell id="-xlM-6BcLW93TCqh4AAz-3" value="Open Account" style="text;html=1;align=center;verticalAlign=middle;resizable=0;points=[];autosize=1;strokeColor=none;fillColor=none;" vertex="1" parent="1">
          <mxGeometry x="335" y="120" width="100" height="30" as="geometry" />
        </mxCell>
        <mxCell id="-xlM-6BcLW93TCqh4AAz-6" style="edgeStyle=orthogonalEdgeStyle;rounded=0;orthogonalLoop=1;jettySize=auto;html=1;exitX=0;exitY=0.3333333333333333;exitDx=0;exitDy=0;exitPerimeter=0;entryX=1;entryY=0.5;entryDx=0;entryDy=0;endArrow=none;endFill=0;" edge="1" parent="1" source="-xlM-6BcLW93TCqh4AAz-4" target="-xlM-6BcLW93TCqh4AAz-2">
          <mxGeometry relative="1" as="geometry" />
        </mxCell>
        <mxCell id="-xlM-6BcLW93TCqh4AAz-29" style="edgeStyle=orthogonalEdgeStyle;rounded=0;orthogonalLoop=1;jettySize=auto;html=1;exitX=0;exitY=1;exitDx=0;exitDy=0;exitPerimeter=0;entryX=1;entryY=0.5;entryDx=0;entryDy=0;" edge="1" parent="1" source="-xlM-6BcLW93TCqh4AAz-4" target="-xlM-6BcLW93TCqh4AAz-10">
          <mxGeometry relative="1" as="geometry" />
        </mxCell>
        <mxCell id="-xlM-6BcLW93TCqh4AAz-4" value="Clerk" style="shape=umlActor;verticalLabelPosition=bottom;verticalAlign=top;html=1;outlineConnect=0;" vertex="1" parent="1">
          <mxGeometry x="620" y="140" width="30" height="60" as="geometry" />
        </mxCell>
        <mxCell id="-xlM-6BcLW93TCqh4AAz-8" value="" style="ellipse;whiteSpace=wrap;html=1;" vertex="1" parent="1">
          <mxGeometry x="345" y="190" width="80" height="50" as="geometry" />
        </mxCell>
        <mxCell id="-xlM-6BcLW93TCqh4AAz-9" value="Withdraw Cash" style="text;html=1;align=center;verticalAlign=middle;resizable=0;points=[];autosize=1;strokeColor=none;fillColor=none;" vertex="1" parent="1">
          <mxGeometry x="335" y="250" width="100" height="30" as="geometry" />
        </mxCell>
        <mxCell id="-xlM-6BcLW93TCqh4AAz-10" value="" style="ellipse;whiteSpace=wrap;html=1;" vertex="1" parent="1">
          <mxGeometry x="345" y="320" width="80" height="50" as="geometry" />
        </mxCell>
        <mxCell id="-xlM-6BcLW93TCqh4AAz-11" value="Clear Cheques" style="text;html=1;align=center;verticalAlign=middle;resizable=0;points=[];autosize=1;strokeColor=none;fillColor=none;" vertex="1" parent="1">
          <mxGeometry x="335" y="380" width="100" height="30" as="geometry" />
        </mxCell>
        <mxCell id="-xlM-6BcLW93TCqh4AAz-12" value="" style="ellipse;whiteSpace=wrap;html=1;" vertex="1" parent="1">
          <mxGeometry x="345" y="440" width="80" height="50" as="geometry" />
        </mxCell>
        <mxCell id="-xlM-6BcLW93TCqh4AAz-13" value="Loan Application" style="text;html=1;align=center;verticalAlign=middle;resizable=0;points=[];autosize=1;strokeColor=none;fillColor=none;" vertex="1" parent="1">
          <mxGeometry x="330" y="500" width="110" height="30" as="geometry" />
        </mxCell>
        <mxCell id="-xlM-6BcLW93TCqh4AAz-15" value="" style="ellipse;whiteSpace=wrap;html=1;" vertex="1" parent="1">
          <mxGeometry x="345" y="550" width="80" height="50" as="geometry" />
        </mxCell>
        <mxCell id="-xlM-6BcLW93TCqh4AAz-16" value="Report" style="text;html=1;align=center;verticalAlign=middle;resizable=0;points=[];autosize=1;strokeColor=none;fillColor=none;" vertex="1" parent="1">
          <mxGeometry x="355" y="610" width="60" height="30" as="geometry" />
        </mxCell>
        <mxCell id="-xlM-6BcLW93TCqh4AAz-28" style="edgeStyle=orthogonalEdgeStyle;rounded=0;orthogonalLoop=1;jettySize=auto;html=1;exitX=0.5;exitY=0.5;exitDx=0;exitDy=0;exitPerimeter=0;entryX=0;entryY=0.5;entryDx=0;entryDy=0;" edge="1" parent="1" source="-xlM-6BcLW93TCqh4AAz-17" target="-xlM-6BcLW93TCqh4AAz-15">
          <mxGeometry relative="1" as="geometry" />
        </mxCell>
        <mxCell id="-xlM-6BcLW93TCqh4AAz-17" value="Manager" style="shape=umlActor;verticalLabelPosition=bottom;verticalAlign=top;html=1;outlineConnect=0;" vertex="1" parent="1">
          <mxGeometry x="190" y="545" width="30" height="60" as="geometry" />
        </mxCell>
        <mxCell id="-xlM-6BcLW93TCqh4AAz-27" style="edgeStyle=orthogonalEdgeStyle;rounded=0;orthogonalLoop=1;jettySize=auto;html=1;exitX=0;exitY=1;exitDx=0;exitDy=0;exitPerimeter=0;entryX=1;entryY=0.5;entryDx=0;entryDy=0;" edge="1" parent="1" source="-xlM-6BcLW93TCqh4AAz-18" target="-xlM-6BcLW93TCqh4AAz-12">
          <mxGeometry relative="1" as="geometry" />
        </mxCell>
        <mxCell id="-xlM-6BcLW93TCqh4AAz-18" value="Loan Officer" style="shape=umlActor;verticalLabelPosition=bottom;verticalAlign=top;html=1;outlineConnect=0;" vertex="1" parent="1">
          <mxGeometry x="610" y="380" width="30" height="60" as="geometry" />
        </mxCell>
      </root>
    </mxGraphModel>
  </diagram>
</mxfile>
